<mxfile host="app.diagrams.net" modified="2022-05-24T08:32:09.738Z" agent="5.0 (Windows)" etag="UWXhFwWsoOe-0Tc4kwaq" version="18.1.2" type="github">
  <diagram id="c4WK5NmcVzo4xofmI_4g" name="Page-1">
    <mxGraphModel dx="644" dy="453" grid="1" gridSize="10" guides="1" tooltips="1" connect="1" arrows="1" fold="1" page="1" pageScale="1" pageWidth="827" pageHeight="1169" math="0" shadow="0">
      <root>
        <mxCell id="0" />
        <mxCell id="1" parent="0" />
        <mxCell id="Rp_j0rJ16RyRe-mVW-OO-1" value="Actor" style="shape=umlActor;verticalLabelPosition=bottom;verticalAlign=top;html=1;outlineConnect=0;direction=south;rotation=-90;" vertex="1" parent="1">
          <mxGeometry x="130" y="395" width="60" height="30" as="geometry" />
        </mxCell>
        <mxCell id="Rp_j0rJ16RyRe-mVW-OO-3" value="Anwendungsfall im Level" style="shape=umlFrame;whiteSpace=wrap;html=1;width=100;" vertex="1" parent="1">
          <mxGeometry x="240" y="200" width="440" height="400" as="geometry" />
        </mxCell>
        <mxCell id="Rp_j0rJ16RyRe-mVW-OO-5" value="Spiel beenden" style="ellipse;whiteSpace=wrap;html=1;" vertex="1" parent="1">
          <mxGeometry x="260" y="240" width="90" height="45" as="geometry" />
        </mxCell>
        <mxCell id="Rp_j0rJ16RyRe-mVW-OO-6" value="&amp;lt;&amp;lt; include &amp;gt;&amp;gt;" style="endArrow=open;endSize=12;dashed=1;html=1;rounded=0;" edge="1" parent="1" source="Rp_j0rJ16RyRe-mVW-OO-5" target="Rp_j0rJ16RyRe-mVW-OO-10">
          <mxGeometry x="-0.2308" width="160" relative="1" as="geometry">
            <mxPoint x="340" y="330" as="sourcePoint" />
            <mxPoint x="305" y="330.0000000000001" as="targetPoint" />
            <mxPoint as="offset" />
          </mxGeometry>
        </mxCell>
        <mxCell id="Rp_j0rJ16RyRe-mVW-OO-8" value="" style="endArrow=none;html=1;rounded=0;" edge="1" parent="1" source="Rp_j0rJ16RyRe-mVW-OO-1" target="Rp_j0rJ16RyRe-mVW-OO-5">
          <mxGeometry width="50" height="50" relative="1" as="geometry">
            <mxPoint x="360" y="420" as="sourcePoint" />
            <mxPoint x="410" y="370" as="targetPoint" />
          </mxGeometry>
        </mxCell>
        <mxCell id="Rp_j0rJ16RyRe-mVW-OO-9" value="" style="endArrow=none;html=1;rounded=0;" edge="1" parent="1" source="Rp_j0rJ16RyRe-mVW-OO-1" target="Rp_j0rJ16RyRe-mVW-OO-10">
          <mxGeometry width="50" height="50" relative="1" as="geometry">
            <mxPoint x="200" y="296.8261515758653" as="sourcePoint" />
            <mxPoint x="269.6849117818472" y="366.44493227075793" as="targetPoint" />
          </mxGeometry>
        </mxCell>
        <mxCell id="Rp_j0rJ16RyRe-mVW-OO-10" value="Level beenden" style="ellipse;whiteSpace=wrap;html=1;" vertex="1" parent="1">
          <mxGeometry x="470" y="240" width="90" height="45" as="geometry" />
        </mxCell>
        <mxCell id="Rp_j0rJ16RyRe-mVW-OO-11" value="Spieler bewegen" style="ellipse;whiteSpace=wrap;html=1;" vertex="1" parent="1">
          <mxGeometry x="260" y="395" width="90" height="45" as="geometry" />
        </mxCell>
        <mxCell id="Rp_j0rJ16RyRe-mVW-OO-12" value="sterben" style="ellipse;whiteSpace=wrap;html=1;" vertex="1" parent="1">
          <mxGeometry x="470" y="330" width="90" height="45" as="geometry" />
        </mxCell>
        <mxCell id="Rp_j0rJ16RyRe-mVW-OO-13" value="Item aufsammeln" style="ellipse;whiteSpace=wrap;html=1;" vertex="1" parent="1">
          <mxGeometry x="340" y="510" width="90" height="45" as="geometry" />
        </mxCell>
        <mxCell id="Rp_j0rJ16RyRe-mVW-OO-14" value="Tür öffnen" style="ellipse;whiteSpace=wrap;html=1;" vertex="1" parent="1">
          <mxGeometry x="480" y="530" width="90" height="45" as="geometry" />
        </mxCell>
        <mxCell id="Rp_j0rJ16RyRe-mVW-OO-15" value="Ausgang finden" style="ellipse;whiteSpace=wrap;html=1;" vertex="1" parent="1">
          <mxGeometry x="580" y="430" width="90" height="45" as="geometry" />
        </mxCell>
        <mxCell id="Rp_j0rJ16RyRe-mVW-OO-16" value="Level gewinnen" style="ellipse;whiteSpace=wrap;html=1;" vertex="1" parent="1">
          <mxGeometry x="580" y="360" width="90" height="45" as="geometry" />
        </mxCell>
        <mxCell id="Rp_j0rJ16RyRe-mVW-OO-17" value="&amp;lt;&amp;lt; include &amp;gt;&amp;gt;" style="endArrow=open;endSize=12;dashed=1;html=1;rounded=0;" edge="1" parent="1" source="Rp_j0rJ16RyRe-mVW-OO-16" target="Rp_j0rJ16RyRe-mVW-OO-10">
          <mxGeometry x="-0.2308" width="160" relative="1" as="geometry">
            <mxPoint x="450" y="275" as="sourcePoint" />
            <mxPoint x="450" y="310.0000000000001" as="targetPoint" />
            <mxPoint as="offset" />
          </mxGeometry>
        </mxCell>
        <mxCell id="Rp_j0rJ16RyRe-mVW-OO-18" value="&amp;lt;&amp;lt; include &amp;gt;&amp;gt;" style="endArrow=open;endSize=12;dashed=1;html=1;rounded=0;" edge="1" parent="1" source="Rp_j0rJ16RyRe-mVW-OO-12" target="Rp_j0rJ16RyRe-mVW-OO-10">
          <mxGeometry x="-0.2308" width="160" relative="1" as="geometry">
            <mxPoint x="430" y="330" as="sourcePoint" />
            <mxPoint x="430" y="365.0000000000001" as="targetPoint" />
            <mxPoint as="offset" />
          </mxGeometry>
        </mxCell>
        <mxCell id="Rp_j0rJ16RyRe-mVW-OO-19" value="" style="endArrow=none;html=1;rounded=0;" edge="1" parent="1" source="Rp_j0rJ16RyRe-mVW-OO-1" target="Rp_j0rJ16RyRe-mVW-OO-11">
          <mxGeometry width="50" height="50" relative="1" as="geometry">
            <mxPoint x="360" y="420" as="sourcePoint" />
            <mxPoint x="410" y="370" as="targetPoint" />
          </mxGeometry>
        </mxCell>
      </root>
    </mxGraphModel>
  </diagram>
</mxfile>
